<svg width="40" height="40" viewBox="0 0 40 40" fill="none" xmlns="http://www.w3.org/2000/svg">
<g clip-path="url(#clip0_2217_6424)">
<path d="M11 0.75H27.3535L38.25 11.7373V34C38.25 36.8995 35.8995 39.25 33 39.25H11C8.10051 39.25 5.75 36.8995 5.75 34V6C5.75 3.10051 8.10051 0.75 11 0.75Z" stroke="#404040" stroke-width="1.5"/>
<path d="M27 0L39 12H31C28.7909 12 27 10.2091 27 8V0Z" fill="#404040"/>
<path d="M1 22C1 19.7909 2.79086 18 5 18H29C31.2091 18 33 19.7909 33 22V30C33 32.2091 31.2091 34 29 34H5C2.79086 34 1 32.2091 1 30V22Z" fill="#DC2626"/>
<path d="M9.16051 31.0455V23.5455H10.4247V24.4474H10.4993C10.5656 24.3149 10.6591 24.174 10.7798 24.0249C10.9006 23.8733 11.0639 23.7443 11.2699 23.6378C11.4759 23.5289 11.7386 23.4744 12.0582 23.4744C12.4796 23.4744 12.8596 23.5821 13.1982 23.7976C13.5391 24.0107 13.8089 24.3267 14.0078 24.7457C14.209 25.1624 14.3097 25.6738 14.3097 26.2798C14.3097 26.8788 14.2114 27.3878 14.0149 27.8068C13.8184 28.2259 13.5509 28.5455 13.2124 28.7656C12.8738 28.9858 12.4903 29.0959 12.0618 29.0959C11.7493 29.0959 11.4901 29.0438 11.2841 28.9396C11.0781 28.8355 10.9124 28.71 10.7869 28.5632C10.6638 28.4141 10.5679 28.2732 10.4993 28.1406H10.446V31.0455H9.16051ZM10.4212 26.2727C10.4212 26.6255 10.4709 26.9344 10.5703 27.1996C10.6721 27.4647 10.8177 27.6719 11.0071 27.821C11.1989 27.9678 11.4309 28.0412 11.7031 28.0412C11.9872 28.0412 12.2251 27.9654 12.4169 27.8139C12.6087 27.66 12.7531 27.4505 12.8501 27.1854C12.9496 26.9179 12.9993 26.6136 12.9993 26.2727C12.9993 25.9342 12.9508 25.6335 12.8537 25.3707C12.7566 25.108 12.6122 24.902 12.4205 24.7528C12.2287 24.6037 11.9896 24.5291 11.7031 24.5291C11.4285 24.5291 11.1953 24.6013 11.0036 24.7457C10.8118 24.8902 10.6662 25.0926 10.5668 25.353C10.4697 25.6134 10.4212 25.92 10.4212 26.2727ZM17.4347 29.0959C17.0062 29.0959 16.6226 28.9858 16.2841 28.7656C15.9455 28.5455 15.678 28.2259 15.4815 27.8068C15.285 27.3878 15.1868 26.8788 15.1868 26.2798C15.1868 25.6738 15.2862 25.1624 15.4851 24.7457C15.6863 24.3267 15.9574 24.0107 16.2983 23.7976C16.6392 23.5821 17.0192 23.4744 17.4382 23.4744C17.7578 23.4744 18.0206 23.5289 18.2266 23.6378C18.4325 23.7443 18.5959 23.8733 18.7166 24.0249C18.8374 24.174 18.9309 24.3149 18.9972 24.4474H19.0504V21.7273H20.3395V29H19.0753V28.1406H18.9972C18.9309 28.2732 18.835 28.4141 18.7095 28.5632C18.584 28.71 18.4183 28.8355 18.2124 28.9396C18.0064 29.0438 17.7472 29.0959 17.4347 29.0959ZM17.7933 28.0412C18.0656 28.0412 18.2976 27.9678 18.4893 27.821C18.6811 27.6719 18.8267 27.4647 18.9261 27.1996C19.0256 26.9344 19.0753 26.6255 19.0753 26.2727C19.0753 25.92 19.0256 25.6134 18.9261 25.353C18.8291 25.0926 18.6847 24.8902 18.4929 24.7457C18.3035 24.6013 18.0703 24.5291 17.7933 24.5291C17.5069 24.5291 17.2678 24.6037 17.076 24.7528C16.8842 24.902 16.7398 25.108 16.6428 25.3707C16.5457 25.6335 16.4972 25.9342 16.4972 26.2727C16.4972 26.6136 16.5457 26.9179 16.6428 27.1854C16.7422 27.4505 16.8878 27.66 17.0795 27.8139C17.2737 27.9654 17.5116 28.0412 17.7933 28.0412ZM24.4721 23.5455V24.5398H21.2477V23.5455H24.4721ZM22.0538 29V23.0305C22.0538 22.6636 22.1296 22.3582 22.2811 22.1143C22.435 21.8705 22.6409 21.6882 22.899 21.5675C23.157 21.4467 23.4435 21.3864 23.7583 21.3864C23.9809 21.3864 24.1786 21.4041 24.3514 21.4396C24.5242 21.4751 24.652 21.5071 24.7349 21.5355L24.4792 22.5298C24.4248 22.5133 24.3561 22.4967 24.2733 22.4801C24.1904 22.4612 24.0981 22.4517 23.9963 22.4517C23.7572 22.4517 23.5879 22.5097 23.4885 22.6257C23.3914 22.7393 23.3429 22.9027 23.3429 23.1158V29H22.0538Z" fill="#0A0A0A"/>
</g>
<defs>
<clipPath id="clip0_2217_6424">
<rect width="40" height="40" fill="white"/>
</clipPath>
</defs>
</svg>
