<svg width="24" height="24" viewBox="0 0 24 24" fill="none" xmlns="http://www.w3.org/2000/svg">
<path d="M20.6047 12C20.6047 7.24778 16.7522 3.39535 12 3.39535C7.24778 3.39535 3.39535 7.24778 3.39535 12C3.39535 16.7522 7.24778 20.6047 12 20.6047C16.7522 20.6047 20.6047 16.7522 20.6047 12ZM15.1704 8.78052C15.4071 8.47671 15.8457 8.42233 16.1497 8.65879C16.4535 8.89542 16.5079 9.33406 16.2714 9.63808L12.5442 14.4301C11.964 15.1759 10.8729 15.2728 10.1704 14.6408L7.81214 12.5187C7.52578 12.2609 7.50261 11.8195 7.76036 11.5331C8.01812 11.2467 8.45962 11.2235 8.746 11.4813L11.1034 13.6034C11.2037 13.6937 11.3602 13.68 11.4431 13.5734L15.1704 8.78052ZM22 12C22 17.5228 17.5228 22 12 22C6.47715 22 2 17.5228 2 12C2 6.47715 6.47715 2 12 2C17.5228 2 22 6.47715 22 12Z" fill="#737373"/>
</svg>
