<svg width="24" height="24" viewBox="0 0 24 24" fill="none" xmlns="http://www.w3.org/2000/svg">
<path d="M18.8712 2.99805C21.4361 2.99823 22.9523 5.88539 21.3282 7.90623L11.7453 19.8305C9.94228 22.0738 6.16753 20.8854 6.16753 17.9588V12.2275C6.16753 11.8175 6.00837 11.4194 5.71626 11.1131L2.84339 8.10187C0.964179 6.13168 2.44394 2.99805 5.13061 2.99805H18.8712ZM7.56221 17.9588C7.56221 19.4971 9.62515 20.2474 10.6548 18.9668L20.2386 7.04252C21.0896 5.98322 20.3382 4.38305 18.8712 4.38287H5.13061C3.59307 4.38287 2.87073 6.11611 3.8567 7.14981L6.72867 10.1611C7.26281 10.7211 7.56221 11.4586 7.56221 12.2275V17.9588Z" fill="#737373"/>
</svg>
