<svg width="24" height="24" viewBox="0 0 24 24" fill="none" xmlns="http://www.w3.org/2000/svg">
<path d="M14.2651 9.55538C14.5188 9.25037 14.9597 9.2196 15.2496 9.48656C15.5393 9.75357 15.5686 10.2177 15.3149 10.5228L12.6458 13.7328C12.0723 14.4227 11.0845 14.5157 10.4044 13.9431L8.77422 12.5704C8.47342 12.3171 8.4246 11.8546 8.66524 11.538C8.90588 11.2214 9.34528 11.17 9.64607 11.4233L11.2763 12.796C11.3734 12.8777 11.514 12.8647 11.5959 12.7664L14.2651 9.55538Z" fill="#737373"/>
<path d="M10.2064 2.24441C11.3485 1.7102 12.6517 1.7102 13.7937 2.24441L18.4236 4.40959C20.0218 5.15722 21.0987 6.85253 20.9838 8.73997C20.7983 11.7829 20.2885 14.0766 19.2147 16.0251C18.1411 17.9732 16.5428 19.5044 14.3114 21.0983C12.9177 22.0937 11.0825 22.0908 9.68967 21.0983C7.46796 19.5151 5.85792 17.9979 4.77368 16.0519C3.68827 14.1037 3.16973 11.7986 2.9991 8.71512C2.89527 6.83851 3.9715 5.16055 5.55835 4.4182L10.2064 2.24441ZM13.2279 3.58558C12.4464 3.21999 11.5537 3.21999 10.7722 3.58558L6.12506 5.76033C5.02313 6.27582 4.32409 7.41481 4.39134 8.63004C4.55517 11.5902 5.04496 13.6378 5.97611 15.3091C6.90849 16.9827 8.3243 18.3521 10.4716 19.8823C11.3936 20.5393 12.6091 20.54 13.5285 19.8833C15.6796 18.3468 17.0841 16.964 18.0077 15.2881C18.931 13.6127 19.4132 11.5722 19.5916 8.64629C19.6662 7.42167 18.9662 6.27065 17.8569 5.75172L13.2279 3.58558Z" fill="#737373"/>
</svg>
