<svg width="105" height="32" viewBox="0 0 105 32" fill="none" xmlns="http://www.w3.org/2000/svg">
  <path d="M71.5 0L71.5 32" stroke="currentColor"/>
  <path d="M84 22H85.0501V18.2857H87.7103C89.5304 18.2857 90.8605 16.9286 90.8605 15.1429C90.8605 13.3571 89.5304 12 87.7103 12H84V22ZM85.0501 17.2857V13H87.7103C88.9704 13 89.8105 13.8571 89.8105 15.1429C89.8105 16.4286 88.9704 17.2857 87.7103 17.2857H85.0501Z" fill="currentColor"/>
  <path d="M96.3926 22H97.3727V17.6429C97.3727 16.1429 96.2526 15 94.7125 15C93.1024 15 92.1923 16.2857 92.1923 16.2857L92.8223 16.9286C92.8223 16.9286 93.5224 15.9286 94.7125 15.9286C95.6926 15.9286 96.3926 16.6429 96.3926 17.6429L93.8024 18.0714C92.5423 18.2857 91.8423 19 91.8423 20.1429C91.8423 21.1429 92.8223 22.1429 94.2224 22.1429C95.6926 22.1429 96.3926 21.0714 96.3926 21.0714V22ZM96.3926 18.9286C96.3926 20.2857 95.4825 21.2143 94.2224 21.2143C93.3124 21.2143 92.8223 20.7143 92.8223 20.1429C92.8223 19.5 93.2424 19.0857 94.0824 18.9286L96.3926 18.5V18.9286Z" fill="currentColor"/>
  <path d="M98.9795 24.8571C98.9795 24.8571 99.3296 25 99.8196 25C100.8 25 101.36 24.4286 101.92 23L105 15.1429H103.95L101.78 20.7143L99.6096 15.1429H98.5595L101.29 22L100.94 23C100.688 23.7143 100.31 24.0714 99.6796 24.0714C99.3296 24.0714 98.9795 23.9286 98.9795 23.9286V24.8571Z" fill="currentColor"/>
  <path d="M24.3271 10.1833C23.6345 10.0085 22.9095 9.9156 22.163 9.9156H13.2978C8.40169 9.9156 4.4326 13.9073 4.4326 18.8313C4.4326 22.642 6.80991 25.8942 10.1543 27.1701L7.03263 30.9114C2.86681 28.85 0 24.5389 0 19.5542L6.28395e-08 18.1084C6.22255e-06 11.1216 5.63181 5.45776 12.579 5.45776H22.8818C24.5225 5.45776 26.0898 5.7737 27.5268 6.34832L24.3271 10.1833Z" fill="currentColor"/>
  <path d="M36.3003 30.8796H30.5499L24.8594 24.0121L27.7346 20.5784L36.3003 30.8796Z" fill="currentColor"/>
  <path d="M37.6165 8.71085L35.8289 7.20493L16.0525 30.8795H10.2422L32.4127 4.32726L30.6082 2.80723L38.0957 1L37.6165 8.71085Z" fill="currentColor"/>
  <path d="M15.576 20.6385L18.7507 16.9036H12.3414L9.22656 20.6385H15.576Z" fill="currentColor"/>
  <path d="M53.5228 18.9088V18.277L56.416 21.8433H55.0686L52.8367 19.0168H53.3162L51.076 21.8433H49.7617L52.6632 18.2936V18.8921L49.9684 15.6084H51.324L53.3658 18.1772H52.8698L54.895 15.6084H56.2094L53.5228 18.9088Z" fill="currentColor"/>
  <path d="M44.6199 18.4183H47.1411C47.5048 18.4183 47.7913 18.3351 48.0007 18.1689C48.2157 18.0026 48.3231 17.7754 48.3231 17.4872C48.3231 17.1935 48.2157 16.9662 48.0007 16.8055C47.7913 16.6392 47.5048 16.5561 47.1411 16.5561H44.4628L44.9505 15.9409V21.8433H43.8594V15.6084H47.2403C47.6756 15.6084 48.0558 15.6888 48.381 15.8495C48.7116 16.0047 48.9679 16.2236 49.1497 16.5062C49.3371 16.7833 49.4308 17.1103 49.4308 17.4872C49.4308 17.853 49.3371 18.1772 49.1497 18.4598C48.9679 18.737 48.7116 18.9559 48.381 19.1166C48.0558 19.2718 47.6756 19.3494 47.2403 19.3494H44.6199V18.4183ZM45.8433 18.9254H47.1245L49.5879 21.8433H48.2818L45.8433 18.9254Z" fill="currentColor"/>
  <path d="M42.2412 19.1334C42.2357 19.5213 42.1613 19.8871 42.018 20.2307C41.8748 20.5688 41.6709 20.8681 41.4063 21.1286C41.1418 21.3891 40.8194 21.5941 40.4392 21.7438C40.0645 21.8879 39.6346 21.9599 39.1497 21.9599C38.6592 21.9599 38.2046 21.8851 37.7858 21.7354C37.3669 21.5858 37.0005 21.3724 36.6863 21.0953C36.3777 20.8127 36.138 20.4718 35.9672 20.0728C35.7964 19.6738 35.7109 19.2248 35.7109 18.726C35.7109 18.2272 35.7964 17.7783 35.9672 17.3793C36.1435 16.9803 36.3888 16.6422 36.7029 16.3651C37.017 16.0824 37.3862 15.8663 37.8106 15.7166C38.2349 15.567 38.7005 15.4922 39.2075 15.4922C39.8413 15.4922 40.3951 15.5975 40.869 15.8081C41.3485 16.0132 41.7342 16.2958 42.0263 16.656C42.3184 17.0163 42.4975 17.4292 42.5636 17.8947H41.4559C41.3953 17.601 41.2631 17.346 41.0592 17.1299C40.8608 16.9138 40.6045 16.7475 40.2904 16.6311C39.9763 16.5147 39.6126 16.4565 39.1993 16.4565C38.7143 16.4565 38.2927 16.548 37.9345 16.7309C37.5819 16.9082 37.3063 17.1659 37.1079 17.504C36.915 17.8421 36.8186 18.2494 36.8186 18.726C36.8186 19.2027 36.9178 19.6128 37.1162 19.9564C37.3201 20.3 37.6066 20.5633 37.9759 20.7462C38.3451 20.9291 38.7805 21.0205 39.2819 21.0205C39.7669 21.0205 40.1912 20.9374 40.5549 20.7711C40.9186 20.6048 41.2052 20.3748 41.4146 20.0811C41.624 19.7818 41.737 19.4354 41.7535 19.0419L42.2412 19.1334ZM39.4969 19.6072V18.7759H42.6297V21.8435H41.8197L41.6874 19.2581L41.9437 19.6072H39.4969Z" fill="currentColor"/>
</svg>
