<svg width="24" height="24" viewBox="0 0 24 24" fill="none" xmlns="http://www.w3.org/2000/svg">
<path d="M6.65116 16.6512V13.8605C6.65116 13.4752 6.96352 13.1628 7.34884 13.1628C7.73415 13.1628 8.04651 13.4752 8.04651 13.8605V16.6512C8.04651 17.0365 7.73415 17.3488 7.34884 17.3488C6.96352 17.3488 6.65116 17.0365 6.65116 16.6512Z" fill="#737373"/>
<path d="M10.3721 16.6512V12C10.3721 11.6147 10.6845 11.3023 11.0698 11.3023C11.4551 11.3023 11.7674 11.6147 11.7674 12V16.6512C11.7674 17.0365 11.4551 17.3488 11.0698 17.3488C10.6845 17.3488 10.3721 17.0365 10.3721 16.6512Z" fill="#737373"/>
<path d="M14.093 16.6512V13.8605C14.093 13.4752 14.4054 13.1628 14.7907 13.1628C15.176 13.1628 15.4884 13.4752 15.4884 13.8605V16.6512C15.4884 17.0365 15.176 17.3488 14.7907 17.3488C14.4054 17.3488 14.093 17.0365 14.093 16.6512Z" fill="#737373"/>
<path d="M17.814 16.6512V12C17.814 11.6147 18.1263 11.3023 18.5116 11.3023C18.8969 11.3023 19.2093 11.6147 19.2093 12V16.6512C19.2093 17.0365 18.8969 17.3488 18.5116 17.3488C18.1263 17.3488 17.814 17.0365 17.814 16.6512Z" fill="#737373"/>
<path d="M2 17.5814V2.69767C2 2.31236 2.31236 2 2.69767 2C3.08299 2 3.39535 2.31236 3.39535 2.69767V17.5814C3.39535 19.2511 4.74891 20.6047 6.4186 20.6047H21.3023C21.6876 20.6047 22 20.917 22 21.3023C22 21.6876 21.6876 22 21.3023 22H6.4186C3.97828 22 2 20.0217 2 17.5814Z" fill="#737373"/>
<path d="M18.0184 5.92533C18.2908 5.65287 18.7324 5.65287 19.0049 5.92533C19.2774 6.19779 19.2774 6.63942 19.0049 6.91188L16.5994 9.31741C15.6004 10.3162 13.981 10.3162 12.982 9.31741L11.8919 8.22729C11.4378 7.77338 10.7017 7.77338 10.2476 8.22729L7.84211 10.6328C7.56966 10.9053 7.12802 10.9053 6.85556 10.6328C6.5831 10.3604 6.5831 9.91872 6.85556 9.64626L9.26108 7.24073C10.2601 6.2419 11.8795 6.24191 12.8785 7.24073L13.9686 8.33085C14.4226 8.78476 15.1588 8.78476 15.6128 8.33085L18.0184 5.92533Z" fill="#737373"/>
</svg>
