<svg width="24" height="24" viewBox="0 0 24 24" fill="none" xmlns="http://www.w3.org/2000/svg">
<path d="M7.5814 12C7.5814 11.4002 7.60429 10.8118 7.6468 10.2395C6.89602 10.363 6.21482 10.517 5.62282 10.6946C4.8174 10.9362 4.21634 11.2107 3.8323 11.4831C3.43029 11.7683 3.39535 11.9529 3.39535 12C3.39535 12.0471 3.43029 12.2317 3.8323 12.5169C4.21634 12.7893 4.8174 13.0638 5.62282 13.3054C6.21479 13.483 6.89608 13.6361 7.6468 13.7596C7.60434 13.1876 7.5814 12.5994 7.5814 12ZM14.7616 15.3657C13.884 15.4454 12.9568 15.4884 12 15.4884C11.0429 15.4884 10.1154 15.4455 9.23746 15.3657C9.41897 16.491 9.68684 17.4939 10.0169 18.319C10.3341 19.1119 10.6946 19.7071 11.0589 20.0923C11.4217 20.4758 11.74 20.6047 12 20.6047C12.26 20.6047 12.5783 20.4758 12.9411 20.0923C13.3054 19.7071 13.6659 19.1119 13.9831 18.319C14.3131 17.4939 14.5801 16.4909 14.7616 15.3657ZM3.63608 14.0213C4.34267 16.9556 6.55149 19.3033 9.40461 20.2049C9.15061 19.7978 8.92169 19.3374 8.72148 18.8368C8.30955 17.807 7.99307 16.5664 7.79942 15.1949C6.84643 15.0544 5.97656 14.868 5.2222 14.6417C4.6319 14.4646 4.0944 14.2574 3.63608 14.0213ZM20.363 14.0213C19.9048 14.2573 19.3678 14.4647 18.7778 14.6417C18.0232 14.8681 17.153 15.0544 16.1997 15.1949C16.006 16.5664 15.6904 17.8071 15.2785 18.8368C15.0782 19.3375 14.8486 19.7977 14.5945 20.2049C17.4479 19.3035 19.6563 16.9558 20.363 14.0213ZM9.40461 3.79415C6.55164 4.69566 4.34291 7.04379 3.63608 9.97783C4.09432 9.74172 4.63206 9.53533 5.2222 9.35828C5.97659 9.132 6.84638 8.94471 7.79942 8.80414C7.99308 7.433 8.30964 6.19275 8.72148 5.16315C8.92179 4.66238 9.15044 4.20141 9.40461 3.79415ZM14.5945 3.79415C14.8488 4.20151 15.0781 4.66221 15.2785 5.16315C15.6903 6.19272 16.006 7.43305 16.1997 8.80414C17.1531 8.94472 18.0232 9.13193 18.7778 9.35828C19.3676 9.53524 19.9049 9.74188 20.363 9.97783C19.6561 7.0436 17.4478 4.69544 14.5945 3.79415ZM12 3.39535C11.74 3.39535 11.4217 3.52417 11.0589 3.9077C10.6946 4.29292 10.3341 4.88813 10.0169 5.68096C9.68692 6.50589 9.41897 7.50845 9.23746 8.63336C10.1154 8.55363 11.0429 8.51163 12 8.51163C12.9567 8.51163 13.884 8.55368 14.7616 8.63336C14.5801 7.50851 14.3131 6.50586 13.9831 5.68096C13.6659 4.88813 13.3054 4.29292 12.9411 3.9077C12.5783 3.52417 12.26 3.39535 12 3.39535ZM8.97674 12C8.97674 12.6697 9.0064 13.3202 9.06123 13.944C9.97851 14.0381 10.9668 14.093 12 14.093C13.0329 14.093 14.0208 14.038 14.9379 13.944C14.9927 13.3201 15.0233 12.6698 15.0233 12C15.0233 11.3299 14.9927 10.6792 14.9379 10.0551C14.0209 9.96105 13.0329 9.90698 12 9.90698C10.9668 9.90698 9.97849 9.96099 9.06123 10.0551C9.00635 10.6792 8.97674 11.3299 8.97674 12ZM16.4186 12C16.4186 12.5995 16.3948 13.1876 16.3523 13.7596C17.1034 13.6361 17.785 13.4831 18.3772 13.3054C19.1826 13.0638 19.7837 12.7893 20.1677 12.5169C20.5697 12.2317 20.6047 12.0471 20.6047 12C20.6047 11.9529 20.5697 11.7683 20.1677 11.4831C19.7837 11.2107 19.1826 10.9362 18.3772 10.6946C17.7849 10.5169 17.1034 10.363 16.3523 10.2395C16.3948 10.8118 16.4186 11.4002 16.4186 12ZM22 12C22 17.5228 17.5228 22 12 22C6.64959 22 2.28033 17.7981 2.01272 12.5142L2 12L2.01272 11.4858C2.28033 6.20192 6.64959 2 12 2C17.5228 2 22 6.47715 22 12Z" fill="#737373"/>
</svg>
